<?xml version="1.0" encoding="UTF-8" standalone="no"?>
<!-- Created with Inkscape (http://www.inkscape.org/) -->

<svg
   xmlns:dc="http://purl.org/dc/elements/1.1/"
   xmlns:cc="http://creativecommons.org/ns#"
   xmlns:rdf="http://www.w3.org/1999/02/22-rdf-syntax-ns#"
   xmlns:svg="http://www.w3.org/2000/svg"
   xmlns="http://www.w3.org/2000/svg"
   xmlns:sodipodi="http://sodipodi.sourceforge.net/DTD/sodipodi-0.dtd"
   xmlns:inkscape="http://www.inkscape.org/namespaces/inkscape"
   width="210mm"
   height="297mm"
   viewBox="0 0 210 297"
   version="1.1"
   id="svg7697"
   inkscape:version="0.92.1 r15371"
   sodipodi:docname="PeñaRoL.svg">
  <defs
     id="defs7691">
    <inkscape:path-effect
       effect="bspline"
       id="path-effect7765"
       is_visible="true"
       weight="33.333333"
       steps="2"
       helper_size="0"
       apply_no_weight="true"
       apply_with_weight="true"
       only_selected="false" />
    <inkscape:path-effect
       effect="bspline"
       id="path-effect7759"
       is_visible="true"
       weight="33.333333"
       steps="2"
       helper_size="0"
       apply_no_weight="true"
       apply_with_weight="true"
       only_selected="false" />
  </defs>
  <sodipodi:namedview
     id="base"
     pagecolor="#ffffff"
     bordercolor="#666666"
     borderopacity="1.0"
     inkscape:pageopacity="0.0"
     inkscape:pageshadow="2"
     inkscape:zoom="0.49497475"
     inkscape:cx="-875.39861"
     inkscape:cy="1075.9921"
     inkscape:document-units="mm"
     inkscape:current-layer="layer1"
     showgrid="false"
     inkscape:window-width="1920"
     inkscape:window-height="1017"
     inkscape:window-x="-8"
     inkscape:window-y="-8"
     inkscape:window-maximized="1" />
  <metadata
     id="metadata7694">
    <rdf:RDF>
      <cc:Work
         rdf:about="">
        <dc:format>image/svg+xml</dc:format>
        <dc:type
           rdf:resource="http://purl.org/dc/dcmitype/StillImage" />
        <dc:title></dc:title>
      </cc:Work>
    </rdf:RDF>
  </metadata>
  <g
     inkscape:label="Layer 1"
     inkscape:groupmode="layer"
     id="layer1">
    <g
       id="g7825"
       transform="translate(69.490077,6.9490077)">
      <g
         id="g7797">
        <g
           transform="translate(-126.62202,-313.18602)"
           id="g7660">
          <g
             id="g7638">
            <ellipse
               ry="93.738091"
               rx="97.895836"
               cy="374.10715"
               cx="-189.36607"
               id="path4862"
               style="fill:#ffffff;fill-opacity:1;stroke:#000000;stroke-width:0.26458332" />
            <path
               transform="scale(0.26458333)"
               inkscape:connector-curvature="0"
               id="path4866"
               d="m -756.67117,1764.3427 c -153.3749,-17.6073 -279.58173,-124.289 -316.86123,-267.8403 -8.9906,-34.6201 -12.1474,-93.6996 -6.9177,-129.4657 19.3603,-132.4062 115.40549,-243.9411 247.07534,-286.9225 40.20639,-13.1247 67.90327,-17.1122 118.80333,-17.1041 51.24774,0.01 85.47186,5.5066 126.9108,20.3896 69.70049,25.0332 138.46106,77.4142 178.33694,135.855 20.9112,30.6467 41.58955,75.2939 50.60603,109.265 9.31843,35.1087 12.63215,98.3576 7.1302,136.0947 -18.72891,128.4593 -118.71411,242.9532 -247.48088,283.3925 -48.26855,15.1587 -111.11332,21.6727 -157.60283,16.3358 z m 94.78117,-121.471 c 45.94211,-12.3471 74.96271,-29.139 108.74714,-62.9234 28.69057,-28.6906 41.4574,-48.2637 53.28915,-81.6989 20.86802,-58.9705 15.92428,-122.2632 -13.81532,-176.8726 -43.31837,-79.5434 -125.82648,-124.1885 -220.24857,-119.1763 -58.19986,3.0894 -106.74614,23.6664 -148.02913,62.7442 -48.06938,45.5017 -70.37666,97.0666 -70.14546,162.1464 0.38283,107.757 76.64238,196.72 187.52076,218.7582 24.94312,4.9577 78.9864,3.3905 102.68143,-2.9776 z"
               style="fill:#000000;fill-opacity:1;stroke:#000000;stroke-width:2.85714293" />
            <ellipse
               ry="11.657563"
               rx="11.279588"
               cy="356.72025"
               cx="-114.90475"
               id="path4870-8"
               style="fill:#ffff00;fill-opacity:1;stroke:#000000;stroke-width:0.38397929" />
            <ellipse
               ry="11.657563"
               rx="11.279588"
               cy="399.80951"
               cx="-115.66072"
               id="path4870-3"
               style="fill:#ffff00;fill-opacity:1;stroke:#000000;stroke-width:0.38397929" />
            <ellipse
               ry="11.657563"
               rx="11.279588"
               cy="449.70239"
               cx="-182.94049"
               id="path4870-5"
               style="fill:#ffff00;fill-opacity:1;stroke:#000000;stroke-width:0.38397929" />
            <ellipse
               ry="11.657563"
               rx="11.279588"
               cy="442.14285"
               cx="-228.6756"
               id="path4870-53"
               style="fill:#ffff00;fill-opacity:1;stroke:#000000;stroke-width:0.38397929" />
            <path
               inkscape:connector-curvature="0"
               id="path7247"
               d="m -192.49415,276.85204 c -3.84877,-1.15301 -7.78206,-4.48287 -9.90707,-8.38722 -1.81817,-3.34057 -2.03837,-4.45418 -1.78108,-9.00745 0.38133,-6.74867 2.97595,-10.76502 8.89253,-13.76526 16.31141,-8.2713 32.04701,10.88408 20.92231,25.46932 -3.83445,5.02724 -11.89456,7.55758 -18.12669,5.69061 z"
               style="fill:#ffff00;fill-opacity:1;stroke:#000000;stroke-width:23.14285851;stroke-miterlimit:4.4000001;stroke-dasharray:none;stroke-dashoffset:22.87256622" />
            <path
               inkscape:connector-curvature="0"
               id="path7249"
               d="m -127.96781,292.18523 c -1.85513,-0.99962 -5.41405,-2.81871 -7.9087,-4.04241 -5.33954,-2.61922 -8.38522,-5.46973 -10.29694,-9.63716 -4.59282,-10.01204 2.53465,-22.655 13.63219,-24.1813 4.7431,-0.65236 10.69331,0.98129 15.03829,4.12877 1.73691,1.25822 3.45011,2.28767 3.8071,2.28767 0.35699,0 2.02369,0.99575 3.70378,2.21281 7.09224,5.1376 9.02339,15.56549 4.29801,23.20862 -4.50296,7.28337 -14.77816,10.06186 -22.27373,6.023 z"
               style="fill:#ffff00;fill-opacity:1;stroke:#000000;stroke-width:23.14285851;stroke-miterlimit:4.4000001;stroke-dasharray:none;stroke-dashoffset:22.87256622" />
            <g
               id="g7617">
              <ellipse
                 style="fill:#ffffff;fill-opacity:1;stroke:#000000;stroke-width:0.26458332"
                 id="path4864"
                 cx="-190.5"
                 cy="377.13095"
                 rx="61.232143"
                 ry="58.964287" />
              <path
                 transform="scale(0.26458333)"
                 style="fill:#ffff00;fill-opacity:1;stroke:#000000;stroke-width:2.85714293"
                 d="m -743.14286,1645.383 c -32.38464,-5.5114 -44.23258,-8.4681 -63.26982,-15.7893 -52.27961,-20.1054 -95.20868,-59.2628 -120.73664,-110.1289 -31.16444,-62.0973 -28.29897,-142.4694 7.24175,-203.12 5.28452,-9.0181 21.82558,-28.6622 36.7579,-43.6536 22.28116,-22.3694 31.87676,-29.6882 53.51066,-40.8139 119.01119,-61.2045 264.97287,-13.693 318.91264,103.8081 15.71363,34.2302 19.93863,56.7373 18.33717,97.6845 -2.22583,56.9111 -18.28794,96.1313 -56.14817,137.1017 -31.65283,34.253 -68.6904,56.6822 -111.74834,67.6725 -21.19435,5.4097 -69.04214,9.59 -82.85715,7.2389 z"
                 id="path4868"
                 inkscape:connector-curvature="0" />
              <ellipse
                 style="fill:#ffff00;fill-opacity:1;stroke:#000000;stroke-width:0.38397929"
                 id="path4870"
                 cx="-213.17857"
                 cy="302.66965"
                 rx="11.279588"
                 ry="11.657563" />
              <ellipse
                 style="fill:#ffff00;fill-opacity:1;stroke:#000000;stroke-width:0.38397929"
                 id="path4870-7"
                 cx="-170.84526"
                 cy="302.29169"
                 rx="11.279588"
                 ry="11.657563" />
              <ellipse
                 style="fill:#ffff00;fill-opacity:1;stroke:#000000;stroke-width:0.38397929"
                 id="path4870-70"
                 cx="-135.31548"
                 cy="321.94644"
                 rx="11.279588"
                 ry="11.657563" />
              <ellipse
                 style="fill:#ffff00;fill-opacity:1;stroke:#000000;stroke-width:0.38397929"
                 id="path4870-31"
                 cx="-140.60715"
                 cy="434.58328"
                 rx="11.279588"
                 ry="11.657563" />
              <ellipse
                 style="fill:#ffff00;fill-opacity:1;stroke:#000000;stroke-width:0.38397929"
                 id="path4870-75"
                 cx="-262.31546"
                 cy="406.6131"
                 rx="11.279588"
                 ry="11.657563" />
              <ellipse
                 style="fill:#ffff00;fill-opacity:1;stroke:#000000;stroke-width:0.38397929"
                 id="path4870-77"
                 cx="-268.3631"
                 cy="364.27979"
                 rx="11.279588"
                 ry="11.657563"
                 inkscape:transform-center-x="-8.3154762"
                 inkscape:transform-center-y="-3.0238095" />
              <ellipse
                 style="fill:#ffff00;fill-opacity:1;stroke:#000000;stroke-width:0.38397929"
                 id="path4870-2"
                 cx="-250.22023"
                 cy="324.21429"
                 rx="11.279588"
                 ry="11.657563" />
              <path
                 style="fill:#ffff00;fill-opacity:1;stroke:#000000;stroke-width:22.26841927;stroke-miterlimit:4.4000001;stroke-dasharray:none;stroke-dashoffset:22.87256622"
                 d="m -247.32285,287.1725 c 1.81504,-0.94595 5.29706,-2.66737 7.7378,-3.82536 5.22417,-2.47859 8.20404,-5.17604 10.07445,-9.11971 4.49357,-9.47446 -2.47988,-21.43857 -13.33762,-22.88292 -4.64062,-0.61733 -10.46226,0.9286 -14.71335,3.90708 -1.69938,1.19067 -3.37556,2.16484 -3.72483,2.16484 -0.34928,0 -1.97997,0.94229 -3.62375,2.094 -6.939,4.86174 -8.82842,14.72972 -4.20514,21.96246 4.40566,6.8923 14.45883,9.52161 21.79244,5.69961 z"
                 id="path7249-6"
                 inkscape:connector-curvature="0" />
            </g>
          </g>
        </g>
        <path
           style="fill:none;stroke:#000000;stroke-width:0.26458332px;stroke-linecap:butt;stroke-linejoin:miter;stroke-opacity:1"
           d="m -367.39284,33.172619 c 33.76594,20.158772 67.53182,40.317512 101.2976,60.47619"
           id="path7757"
           inkscape:connector-curvature="0"
           inkscape:path-effect="#path-effect7759"
           inkscape:original-d="m -367.39284,33.172619 c 33.76612,20.158464 67.53201,40.317195 101.2976,60.47619" />
        <path
           style="fill:none;stroke:#000000;stroke-width:0.26458332px;stroke-linecap:butt;stroke-linejoin:miter;stroke-opacity:1"
           d="m -266.09524,93.648807 c 0,0 0,0 0,0 0,0 0,0 0,0 1.47946,-1.795436 2.95916,-3.591157 4.23327,-6.047715 1.27412,-2.456557 2.34337,-5.575202 3.14512,-9.272199 0.80174,-3.696996 1.33634,-7.973745 1.60359,-11.715394 0.26725,-3.74165 0.26725,-6.949106 -0.0891,-10.289801 -0.35635,-3.340695 -1.06913,-6.815483 -1.94347,-9.718143 -0.87435,-2.90266 -1.97655,-5.382617 -3.22377,-7.877049 -1.24722,-2.494432 -2.67273,-5.07817 -4.23176,-7.349892 -1.55902,-2.271721 -3.2518,-4.231774 -4.7677,-5.923158 -1.5159,-1.691384 -3.02765,-3.297623 -4.85395,-4.812125 -1.82631,-1.514503 -4.05357,-3.029043 -6.66228,-4.665771 -2.60871,-1.636727 -5.67661,-3.441379 -8.83931,-4.86683 -3.1627,-1.4254502 -6.45893,-2.4944963 -9.39895,-3.2963247 -2.94001,-0.8018284 -5.52348,-1.3363399 -7.88443,-1.7372606 -2.36095,-0.4009207 -4.49894,-0.6681689 -7.39452,-0.6681811 -2.89558,-1.22e-5 -6.54789,0.2672302 -9.88887,0.6681396 -3.34098,0.4009094 -6.36979,0.9354055 -9.68411,2.1025188 -3.31431,1.1671133 -6.84192,2.930918 -9.96018,4.490047 -3.11826,1.55913 -5.79071,2.895353 -8.06265,4.499032 -2.27193,1.603678 -4.14259,3.474342 -6.30837,6.18642 -2.16577,2.712078 -4.62568,6.264381 -5.85592,8.04094 -1.23024,1.776558 -1.23024,1.776558 -1.23024,1.776558"
           id="path7763"
           inkscape:connector-curvature="0"
           inkscape:path-effect="#path-effect7765"
           inkscape:original-d="m -266.09524,93.648807 c 2.7e-4,-2.65e-4 2.7e-4,-2.65e-4 0,0 0,0 2.7e-4,-2.65e-4 0,0 0,0 2.95918,-3.591137 4.43838,-5.386308 1.06917,-3.117911 2.13842,-6.236555 3.20723,-9.354434 0.53475,-4.27614 1.06934,-8.552889 1.60362,-12.828937 2.6e-4,-3.207279 2.6e-4,-6.414735 0,-9.621705 -0.7124,-3.474482 -1.42518,-6.94927 -2.13816,-10.423511 -1.06875,-2.316464 -2.13789,-4.811115 -3.20723,-7.216275 -1.4251,-2.583738 -2.85061,-5.167477 -4.27632,-7.750818 -1.69238,-1.960171 -3.38516,-3.920217 -5.07812,-5.879929 -1.33607,-1.425687 -2.85059,-3.029319 -4.2763,-4.543582 -2.22697,-1.514784 -4.45424,-3.029319 -6.68174,-4.543582 -3.02887,-1.693015 -6.05784,-3.563858 -9.08716,-5.34539 -3.29616,-1.0693714 -6.59239,-2.1384209 -9.88899,-3.2072346 -2.58347,-0.5348298 -5.16694,-1.0693427 -7.75081,-1.6036171 -2.13805,-0.2675549 -4.27604,-0.5348036 -6.41448,-0.8018084 -3.65278,0.2670334 -7.30509,0.5342744 -10.95804,0.8018084 -3.02903,0.5343157 -6.05784,1.0688135 -9.08716,1.6036171 -3.56368,1.8708086 -7.12693,3.5633296 -10.69078,5.3453906 -2.67267,1.336202 -5.34512,2.672431 -8.0181,4.009043 -1.87084,1.870844 -3.7415,3.741509 -5.61265,5.61266 -2.46034,3.553045 -4.92025,7.105351 -7.38079,10.658424 2.6e-4,-2.65e-4 0,0 0,0"
           sodipodi:nodetypes="cccccccccccccccccccccccc" />
        <g
           id="g7770">
          <path
             transform="scale(0.26458333)"
             inkscape:connector-curvature="0"
             id="path7767"
             d="m -1196.1377,239.19738 c -103.6164,-61.94284 -188.9786,-112.96994 -189.6939,-113.39356 -2.1141,-1.25209 13.95,-23.36804 26.0406,-35.850877 18.9518,-19.566604 33.5109,-30.560882 54.0518,-40.817066 21.8957,-10.932648 43.842,-18.144161 68.6904,-22.571556 17.0784,-3.042972 49.7314,-3.762111 67.1751,-1.47944 78.3887,10.257927 142.1425,54.30939 175.52978,121.284529 16.3768,32.85198 21.4333,53.93362 21.44401,89.4047 0.0114,37.61384 -5.94689,69.93017 -17.22651,93.43291 -4.28827,8.93524 -13.73758,22.08404 -16.10258,22.40687 -0.8334,0.11376 -86.2923,-50.47367 -189.9087,-112.41651 z"
             style="fill:#000000;fill-opacity:1;stroke:#000000;stroke-width:44.15400696;stroke-miterlimit:4;stroke-dasharray:none;stroke-dashoffset:22.87256622" />
        </g>
      </g>
    </g>
  </g>
</svg>
